<?xml version="1.0" standalone="no"?>
<!DOCTYPE svg PUBLIC "-//W3C//DTD SVG 20010904//EN"
 "http://www.w3.org/TR/2001/REC-SVG-20010904/DTD/svg10.dtd">
<svg version="1.0" xmlns="http://www.w3.org/2000/svg"
 width="512.000000pt" height="512.000000pt" viewBox="0 0 512.000000 512.000000"
 preserveAspectRatio="xMidYMid meet">
<metadata>
Created by potrace 1.11, written by Peter Selinger 2001-2013
</metadata>
<g transform="translate(0.000000,512.000000) scale(0.100000,-0.100000)"
fill="#000000" stroke="none">
<path d="M1987 5100 c-130 -41 -225 -133 -278 -268 -22 -56 -22 -66 -25 -617
-1 -308 -2 -563 -3 -566 -1 -3 -252 -6 -559 -6 -307 0 -578 -4 -603 -8 -106
-17 -224 -96 -284 -191 -75 -116 -71 -60 -70 -1274 1 -597 5 -1101 9 -1120 22
-109 122 -240 222 -289 64 -32 107 -32 134 0 20 22 28 24 122 25 94 0 100 -1
108 -22 22 -56 3 -54 660 -54 l605 0 1 -152 c0 -195 6 -238 45 -316 55 -112
157 -195 279 -227 77 -21 1605 -20 1720 1 311 55 593 255 746 529 70 124 104
223 131 380 3 22 7 393 8 825 1 834 0 854 -46 945 -50 96 -132 168 -238 209
l-56 22 -2 915 c0 503 -3 921 -5 929 -3 8 -8 29 -13 45 -26 100 -120 210 -217
258 -72 34 -102 34 -136 0 -26 -26 -32 -28 -124 -28 -85 0 -98 2 -98 17 0 9
-12 26 -26 37 -27 21 -29 21 -988 20 -895 -1 -965 -2 -1019 -19z"/>
</g>
</svg>
