<svg width="100" height="100" viewBox="0 0 100 100" fill="none" xmlns="http://www.w3.org/2000/svg">
<path d="M36.7714 8.69629C21.1492 8.69629 8.48572 20.8241 8.48572 35.7855V62.8748H19.8V35.7855C19.8 26.8109 27.4004 19.532 36.7714 19.532C46.1425 19.532 53.7428 26.8109 53.7428 35.7855V62.8748H65.0571V35.7855C65.0571 20.8241 52.3936 8.69629 36.7714 8.69629Z" fill="#AAB8C2"/>
<path d="M73.5428 87.2548C73.5428 93.2388 68.4769 98.0905 62.2286 98.0905H11.3143C5.06597 98.0905 0 93.2388 0 87.2548V54.7478C0 48.7638 5.06597 43.9121 11.3143 43.9121H62.2286C68.4769 43.9121 73.5428 48.7638 73.5428 54.7478V87.2548Z" fill="#42BDDE"/>
<path d="M99 24.9496C99 11.4836 87.6037 0.569336 73.5428 0.569336C59.482 0.569336 48.0857 11.4836 48.0857 24.9496C48.0857 35.5605 55.1769 44.5622 65.0571 47.9131V91.3182C65.0571 95.0592 68.2223 98.0905 72.1286 98.0905C75.5596 98.0905 78.4165 95.75 79.0586 92.6455C79.1095 92.6482 79.1491 92.6726 79.2 92.6726C80.7642 92.6726 82.0286 91.4617 82.0286 89.9637V87.2548C82.0286 85.7567 80.7642 84.5459 79.2 84.5459V81.8369C80.7642 81.8369 82.0286 80.626 82.0286 79.128V73.7102C82.0286 72.2121 80.7642 71.0013 79.2 71.0013V64.833C80.8858 63.893 82.0286 62.1675 82.0286 60.1656V47.9131C91.9088 44.5649 99 35.5632 99 24.9496ZM73.5428 5.98718C76.6656 5.98718 79.2 8.41437 79.2 11.405C79.2 14.3957 76.6656 16.8229 73.5428 16.8229C70.4201 16.8229 67.8857 14.3957 67.8857 11.405C67.8857 8.41437 70.4201 5.98718 73.5428 5.98718Z" fill="#3F484C"/>
</svg>
