<?xml version="1.0" encoding="UTF-8"?>
<svg xmlns="http://www.w3.org/2000/svg" xmlns:xlink="http://www.w3.org/1999/xlink" width="40pt" height="40pt" viewBox="0 0 40 40" version="1.1">
<g id="surface1">
<path style=" stroke:none;fill-rule:nonzero;fill:rgb(100%,51.372549%,59.607843%);fill-opacity:1;" d="M 2.671875 30.003906 C 3.539062 31.496094 4.605469 32.886719 5.859375 34.140625 C 9.636719 37.917969 14.65625 40 20 40 C 25.34375 40 30.363281 37.917969 34.140625 34.140625 C 35.394531 32.886719 36.460938 31.496094 37.328125 30.003906 C 39.070312 26.996094 40 23.570312 40 20 C 40 16.429688 39.070312 13.003906 37.328125 9.996094 C 36.460938 8.503906 35.394531 7.109375 34.140625 5.859375 C 30.363281 2.082031 25.34375 0 20 0 C 14.65625 0 9.636719 2.082031 5.859375 5.859375 C 4.605469 7.109375 3.539062 8.503906 2.671875 9.996094 C 0.929688 13.003906 0 16.429688 0 20 C 0 23.570312 0.929688 26.996094 2.671875 30.003906 Z M 14.894531 20 C 14.894531 19.070312 15.148438 18.199219 15.582031 17.449219 C 16.464844 15.925781 18.113281 14.894531 20 14.894531 C 21.886719 14.894531 23.535156 15.925781 24.417969 17.449219 C 24.851562 18.199219 25.105469 19.070312 25.105469 20 C 25.105469 20.929688 24.851562 21.800781 24.417969 22.550781 C 23.535156 24.074219 21.886719 25.105469 20 25.105469 C 18.113281 25.105469 16.464844 24.074219 15.582031 22.550781 C 15.148438 21.800781 14.894531 20.929688 14.894531 20 Z M 14.894531 20 "/>
<path style=" stroke:none;fill-rule:nonzero;fill:rgb(32.941176%,89.019608%,37.647059%);fill-opacity:1;" d="M 20 32.550781 L 20 40 C 25.34375 40 30.363281 37.917969 34.140625 34.140625 C 35.394531 32.886719 36.460938 31.496094 37.328125 30.003906 L 30.871094 26.277344 C 28.703125 30.027344 24.644531 32.550781 20 32.550781 Z M 20 32.550781 "/>
<path style=" stroke:none;fill-rule:nonzero;fill:rgb(0%,54.117647%,87.45098%);fill-opacity:1;" d="M 32.550781 20 C 32.550781 22.285156 31.941406 24.429688 30.871094 26.277344 L 37.328125 30.003906 C 39.070312 26.996094 40 23.570312 40 20 C 40 16.429688 39.070312 13.003906 37.328125 9.996094 L 30.871094 13.722656 C 31.941406 15.570312 32.550781 17.714844 32.550781 20 Z M 32.550781 20 "/>
<path style=" stroke:none;fill-rule:nonzero;fill:rgb(100%,83.137255%,0%);fill-opacity:1;" d="M 9.128906 26.277344 L 2.671875 30.003906 C 3.539062 31.496094 4.605469 32.886719 5.859375 34.140625 C 9.636719 37.917969 14.65625 40 20 40 L 20 32.550781 C 15.355469 32.550781 11.296875 30.027344 9.128906 26.277344 Z M 9.128906 26.277344 "/>
<path style=" stroke:none;fill-rule:nonzero;fill:rgb(0%,39.607843%,63.921569%);fill-opacity:1;" d="M 30.871094 13.722656 L 37.328125 9.996094 C 36.460938 8.503906 35.394531 7.109375 34.140625 5.859375 C 30.363281 2.082031 25.34375 0 20 0 L 20 7.449219 C 24.644531 7.449219 28.703125 9.972656 30.871094 13.722656 Z M 30.871094 13.722656 "/>
<path style=" stroke:none;fill-rule:nonzero;fill:rgb(100%,56.862745%,0%);fill-opacity:1;" d="M 2.671875 30.003906 L 9.128906 26.277344 C 8.058594 24.429688 7.449219 22.285156 7.449219 20 C 7.449219 17.714844 8.058594 15.570312 9.128906 13.722656 L 2.671875 9.996094 C 0.929688 13.003906 0 16.429688 0 20 C 0 23.570312 0.929688 26.996094 2.671875 30.003906 Z M 2.671875 30.003906 "/>
<path style=" stroke:none;fill-rule:nonzero;fill:rgb(100%,28.627451%,28.627451%);fill-opacity:1;" d="M 20 7.449219 L 20 0 C 14.65625 0 9.636719 2.082031 5.859375 5.859375 C 4.605469 7.109375 3.539062 8.503906 2.671875 9.996094 L 9.128906 13.722656 C 11.296875 9.972656 15.355469 7.449219 20 7.449219 Z M 20 7.449219 "/>
<path style=" stroke:none;fill-rule:nonzero;fill:rgb(0%,39.607843%,63.921569%);fill-opacity:1;" d="M 25.105469 20 C 25.105469 20.929688 24.851562 21.800781 24.417969 22.550781 L 30.871094 26.277344 C 31.941406 24.429688 32.550781 22.285156 32.550781 20 C 32.550781 17.714844 31.941406 15.570312 30.871094 13.722656 L 24.417969 17.449219 C 24.851562 18.199219 25.105469 19.070312 25.105469 20 Z M 25.105469 20 "/>
<path style=" stroke:none;fill-rule:nonzero;fill:rgb(0%,31.764706%,51.372549%);fill-opacity:1;" d="M 24.417969 17.449219 L 30.871094 13.722656 C 28.703125 9.972656 24.644531 7.449219 20 7.449219 L 20 14.894531 C 21.886719 14.894531 23.535156 15.925781 24.417969 17.449219 Z M 24.417969 17.449219 "/>
<path style=" stroke:none;fill-rule:nonzero;fill:rgb(0%,67.058824%,36.862745%);fill-opacity:1;" d="M 20 25.105469 L 20 32.550781 C 24.644531 32.550781 28.703125 30.027344 30.871094 26.277344 L 24.417969 22.550781 C 23.535156 24.074219 21.886719 25.105469 20 25.105469 Z M 20 25.105469 "/>
<path style=" stroke:none;fill-rule:nonzero;fill:rgb(100%,62.352941%,1.568627%);fill-opacity:1;" d="M 20 32.550781 L 20 25.105469 C 18.113281 25.105469 16.464844 24.074219 15.582031 22.550781 L 9.128906 26.277344 C 11.296875 30.027344 15.355469 32.550781 20 32.550781 Z M 20 32.550781 "/>
<path style=" stroke:none;fill-rule:nonzero;fill:rgb(100%,29.411765%,0%);fill-opacity:1;" d="M 14.894531 20 C 14.894531 19.070312 15.148438 18.199219 15.582031 17.449219 L 9.128906 13.722656 C 8.058594 15.570312 7.449219 17.714844 7.449219 20 C 7.449219 22.285156 8.058594 24.429688 9.128906 26.277344 L 15.582031 22.550781 C 15.148438 21.800781 14.894531 20.929688 14.894531 20 Z M 14.894531 20 "/>
<path style=" stroke:none;fill-rule:nonzero;fill:rgb(90.980392%,0%,28.235294%);fill-opacity:1;" d="M 20 14.894531 L 20 7.449219 C 15.355469 7.449219 11.296875 9.972656 9.128906 13.722656 L 15.582031 17.449219 C 16.464844 15.925781 18.113281 14.894531 20 14.894531 Z M 20 14.894531 "/>
</g>
</svg>
