<?xml version="1.0" encoding="UTF-8"?>
<svg xmlns="http://www.w3.org/2000/svg" xmlns:xlink="http://www.w3.org/1999/xlink" width="40pt" height="40pt" viewBox="0 0 40 40" version="1.1">
<g id="surface1">
<path style=" stroke:none;fill-rule:nonzero;fill:#fff;fill-opacity:1;" d="M 8.125 3.75 C 5.710938 3.75 3.75 5.710938 3.75 8.125 L 3.75 31.875 C 3.75 34.289062 5.710938 36.25 8.125 36.25 L 31.875 36.25 C 34.289062 36.25 36.25 34.289062 36.25 31.875 L 36.25 8.125 C 36.25 5.710938 34.289062 3.75 31.875 3.75 Z M 8.125 5 L 31.875 5 C 33.597656 5 35 6.402344 35 8.125 L 35 18.75 C 34.65625 18.75 34.375 19.03125 34.375 19.375 L 34.375 20.625 C 34.375 20.96875 34.65625 21.25 35 21.25 L 35 31.875 C 35 33.597656 33.597656 35 31.875 35 L 8.125 35 C 6.402344 35 5 33.597656 5 31.875 L 5 21.25 C 5.34375 21.25 5.625 20.96875 5.625 20.625 L 5.625 19.375 C 5.625 19.03125 5.34375 18.75 5 18.75 L 5 8.125 C 5 6.402344 6.402344 5 8.125 5 Z M 26.597656 10.382812 C 26.277344 10.382812 25.957031 10.507812 25.714844 10.75 L 20 16.464844 L 14.285156 10.75 C 13.800781 10.265625 13.007812 10.261719 12.519531 10.75 L 10.75 12.519531 C 10.261719 13.003906 10.261719 13.796875 10.75 14.285156 L 16.464844 20 L 10.75 25.714844 C 10.261719 26.203125 10.261719 26.996094 10.75 27.480469 L 12.519531 29.25 C 13.003906 29.738281 13.796875 29.734375 14.285156 29.25 L 20 23.535156 L 25.714844 29.25 C 25.957031 29.492188 26.277344 29.617188 26.597656 29.617188 C 26.917969 29.617188 27.238281 29.492188 27.480469 29.25 L 29.25 27.480469 C 29.738281 26.996094 29.738281 26.203125 29.25 25.714844 L 23.535156 20 L 29.25 14.285156 C 29.738281 13.796875 29.738281 13.003906 29.25 12.519531 L 27.480469 10.75 C 27.238281 10.507812 26.917969 10.382812 26.597656 10.382812 Z M 13.402344 11.632812 L 19.558594 17.789062 C 19.800781 18.035156 20.199219 18.035156 20.441406 17.789062 L 26.597656 11.632812 L 28.367188 13.402344 L 22.210938 19.558594 C 21.964844 19.800781 21.964844 20.199219 22.210938 20.441406 L 28.367188 26.597656 L 26.597656 28.367188 L 20.441406 22.210938 C 20.320312 22.085938 20.160156 22.027344 20 22.027344 C 19.839844 22.027344 19.679688 22.085938 19.558594 22.210938 L 13.402344 28.367188 L 11.632812 26.597656 L 17.789062 20.441406 C 18.035156 20.199219 18.035156 19.800781 17.789062 19.558594 L 11.632812 13.402344 Z M 8.125 18.75 C 7.78125 18.75 7.5 19.03125 7.5 19.375 L 7.5 20.625 C 7.5 20.96875 7.78125 21.25 8.125 21.25 C 8.46875 21.25 8.75 20.96875 8.75 20.625 L 8.75 19.375 C 8.75 19.03125 8.46875 18.75 8.125 18.75 Z M 11.25 18.75 C 10.90625 18.75 10.625 19.03125 10.625 19.375 L 10.625 20.625 C 10.625 20.96875 10.90625 21.25 11.25 21.25 C 11.59375 21.25 11.875 20.96875 11.875 20.625 L 11.875 19.375 C 11.875 19.03125 11.59375 18.75 11.25 18.75 Z M 28.75 18.75 C 28.40625 18.75 28.125 19.03125 28.125 19.375 L 28.125 20.625 C 28.125 20.96875 28.40625 21.25 28.75 21.25 C 29.09375 21.25 29.375 20.96875 29.375 20.625 L 29.375 19.375 C 29.375 19.03125 29.09375 18.75 28.75 18.75 Z M 31.875 18.75 C 31.53125 18.75 31.25 19.03125 31.25 19.375 L 31.25 20.625 C 31.25 20.96875 31.53125 21.25 31.875 21.25 C 32.21875 21.25 32.5 20.96875 32.5 20.625 L 32.5 19.375 C 32.5 19.03125 32.21875 18.75 31.875 18.75 Z M 31.875 18.75 "/>
</g>
</svg>
