<svg width="100" height="100" viewBox="0 0 100 100" fill="none" xmlns="http://www.w3.org/2000/svg">
<path d="M100 60.1656C100 66.1497 95.025 71.0013 88.8889 71.0013H11.1111C4.975 71.0013 0 66.1497 0 60.1656V11.405C0 5.42102 4.975 0.569336 11.1111 0.569336H88.8889C95.025 0.569336 100 5.42102 100 11.405V60.1656Z" fill="#CCD6DD"/>
<path d="M11.1111 11.4048H88.8889V60.1655H11.1111V11.4048Z" fill="#5DADEC"/>
<path d="M36.1111 71.0013H63.8889V87.2549H36.1111V71.0013Z" fill="#CCD6DD"/>
<path d="M36.1111 71.0013H63.8889V76.4192H36.1111V71.0013Z" fill="#9AAAB4"/>
<path d="M100 89.9637C100 85.4751 96.2694 81.837 91.6667 81.837H8.33333C3.73056 81.837 0 85.4751 0 89.9637C0 94.4524 3.73056 98.0905 8.33333 98.0905H91.6667C96.2694 98.0905 100 94.4524 100 89.9637Z" fill="#E1E8ED"/>
<path d="M8.3335 87.2549H13.8891V92.6727H8.3335V87.2549ZM19.4446 87.2549H25.0002V92.6727H19.4446V87.2549ZM30.5557 87.2549H36.1113V92.6727H30.5557V87.2549ZM41.6668 87.2549H47.2224V92.6727H41.6668V87.2549ZM52.7779 87.2549H58.3335V92.6727H52.7779V87.2549ZM63.889 87.2549H69.4446V92.6727H63.889V87.2549ZM75.0002 87.2549H80.5557V92.6727H75.0002V87.2549ZM86.1113 87.2549H91.6668V92.6727H86.1113V87.2549Z" fill="#F5F8FA"/>
</svg>
