<svg width="100" height="100" viewBox="0 0 100 100" fill="none" xmlns="http://www.w3.org/2000/svg">
<mask id="mask0" mask-type="alpha" maskUnits="userSpaceOnUse" x="0" y="0" width="100" height="100">
<rect width="100" height="100" rx="10" fill="#C4C4C4"/>
</mask>
<g mask="url(#mask0)">
<path d="M88.8889 2H11.1111C4.975 2 0 6.85167 0 12.8357V88.6854H100V12.8357C100 6.85167 95.025 2 88.8889 2Z" fill="#FFCC4D"/>
<path d="M89.2056 47.3364C93.6139 46.1147 93.6139 44.2293 89.2084 43.0048L87.6556 42.5876L86.1112 42.1461V42.1596L77.9445 39.746L84.3973 34.5069H84.3584L85.7278 33.6347L87.1084 32.6622C90.6945 29.891 89.9084 28.0949 85.3612 28.6042L83.5945 28.8453L81.8389 29.0891H81.8334L73.5584 30.0074L78.4751 21.3931L79.3334 19.8815C81.5612 15.9807 80.114 14.5639 76.1167 16.731L74.5667 17.4949L73.0223 18.2534H73.0167L65.7223 22.287L66.6667 14.3038V14.2957L66.889 12.5837L67.1028 10.8554C67.6251 6.42902 65.7362 5.66781 62.8917 9.16773L61.7973 10.5195L55.5278 18.2426L53.2528 10.4382L53.2473 10.4247L52.2806 7.10625C51.0278 2.8072 48.9751 2.8072 47.7195 7.10625L47.2362 8.7641L46.7528 10.4247L44.4723 18.2426L39.3029 11.8766L39.3001 11.8739L38.2029 10.5222L37.1001 9.16502C34.2584 5.67052 32.3667 6.43714 32.8917 10.8689L33.0973 12.5864L33.3001 14.2984V14.3011L34.2612 22.371L25.4362 17.5762L23.889 16.7337C19.8862 14.5612 18.4362 15.9752 20.664 19.8788L21.5251 21.385L26.4417 29.9912L18.1667 29.0539H18.164L16.4084 28.8561L14.6445 28.6557C10.1001 28.1437 9.31675 29.9885 12.8973 32.7597L14.289 33.8351L15.6751 34.9052L15.6779 34.9079L22.2056 39.9492L14.1945 42.1759L12.4945 42.6472L10.7945 43.1186C6.3862 44.343 6.3862 46.3422 10.7945 47.5666L14.1973 48.5093L14.2084 48.5148L22.2112 50.7334L14.2918 56.8501L12.9056 57.9228C9.31675 60.694 10.0973 62.5415 14.6362 62.0323L16.4084 61.8155L18.164 61.5961H18.1695L26.3584 60.6751L22.2223 67.7887V67.7941L21.4445 69.3003L20.6223 70.8146C18.4001 74.7154 19.8695 76.124 23.8695 73.9515L25.4251 73.1144L34.2723 68.3197L33.3334 76.3868V76.3922L33.1112 78.1043L32.8973 79.8244C32.3723 84.2589 34.2612 85.0201 37.1029 81.5229L38.2029 80.1685L39.3001 78.814L44.4723 72.4426L46.7501 80.2579V80.2606L47.2334 81.9184L47.7195 83.579C48.9751 87.8753 50.789 87.8753 52.0445 83.5763L52.7778 80.2606V80.2497L55.2917 72.4426L60.5834 78.814L61.739 80.1685L62.8695 81.5229C65.7084 85.0174 67.6195 84.2589 67.0945 79.8298L66.8778 78.1043L66.6667 76.3895V76.3814L65.7223 68.3982L73.0112 72.4318H73.0167L74.564 73.1903L76.1139 73.9894C80.1139 76.1647 81.5667 74.729 79.3362 70.8281L78.5584 69.3111L77.7778 67.7995V67.7941L73.6417 60.6751L81.8278 61.5961H81.8362L83.5945 61.8128L85.364 62.0214C89.9056 62.5307 90.6834 60.6886 87.1001 57.9174L85.7112 56.8474L84.3223 55.7774L77.789 50.5031L85.7945 48.0515H85.8056L89.2056 47.3364Z" fill="#F4900C"/>
<path d="M50 71.4297C64.7736 71.4297 76.75 59.7502 76.75 45.3427C76.75 30.9353 64.7736 19.2557 50 19.2557C35.2264 19.2557 23.25 30.9353 23.25 45.3427C23.25 59.7502 35.2264 71.4297 50 71.4297Z" fill="#FFE8B6"/>
<path d="M27.7778 99.5211V42.6338L38.8889 31.7981H44.4445L55.5556 42.6338V99.5211H27.7778ZM91.6667 53.4695C91.6667 50.7605 88.889 50.7605 88.889 50.7605H69.4445C69.4445 50.7605 66.6667 50.7605 66.6667 53.4695V99.5211H91.6667V53.4695Z" fill="#485359"/>
<path d="M77.7778 69.723C77.7778 67.0141 75 67.0141 75 67.0141H52.7778C50 67.0141 50 69.723 50 69.723V99.5211H77.7778V69.723ZM30.5556 75.1408H16.6667V61.5962C16.6667 61.5962 16.6667 58.8873 13.8889 58.8873H0V88.6854C0 94.6694 4.975 99.5211 11.1111 99.5211H33.3333V77.8498C33.3333 77.8498 33.3333 75.1408 30.5556 75.1408ZM88.8889 85.9765C86.1111 85.9765 86.1111 88.6854 86.1111 88.6854V99.5211H88.8889C95.025 99.5211 100 94.6694 100 88.6854V85.9765H88.8889Z" fill="#292F33"/>
<path d="M22.2221 80.5587H27.7776V85.9766H22.2221V80.5587ZM16.6665 91.3944H22.2221V96.8123H16.6665V91.3944ZM44.4443 48.0516H49.9998V53.4695H44.4443V48.0516ZM44.4443 58.8873H49.9998V64.3052H44.4443V58.8873ZM38.8887 69.723H44.4443V75.1409H38.8887V69.723ZM66.6665 72.4319H72.2221V77.8498H66.6665V72.4319ZM61.111 83.2676H66.6665V88.6855H61.111V83.2676ZM80.5554 56.1784H86.111V61.5963H80.5554V56.1784ZM80.5554 67.0141H86.111V72.4319H80.5554V67.0141Z" fill="#FFCC4D"/>
<path d="M38.8889 2.00002H-38.8889C-45.025 2.00002 -50 6.8517 -50 12.8357V72.432H50V2.00008C40.5 2 45.025 2.00002 38.8889 2.00002Z" fill="#226699"/>
<path d="M-22.2222 99.5211V20.9624L-11.1111 10.1267H-5.55549L5.55562 20.9624V99.5211H-22.2222ZM41.6667 31.7981C41.6667 29.0892 38.889 29.0892 38.889 29.0892H19.4445C19.4445 29.0892 16.6667 29.0892 16.6667 31.7981V99.5211H41.6667V31.7981Z" fill="#3F484C"/>
<path d="M27.7778 53.4694C27.7778 50.7605 25 50.7605 25 50.7605H2.77778C-1.90735e-06 50.7605 -1.90735e-06 53.4694 -1.90735e-06 53.4694V99.5211H27.7778V53.4694ZM-19.4444 58.8872H-33.3333V39.9247C-33.3333 39.9247 -33.3333 37.2158 -36.1111 37.2158H-50V88.6854C-50 94.6694 -45.025 99.5211 -38.8889 99.5211H-16.6667V61.5962C-16.6667 61.5962 -16.6667 58.8872 -19.4444 58.8872ZM38.8889 69.7229C36.1111 69.7229 36.1111 72.4319 36.1111 72.4319V99.5211H38.8889C45.025 99.5211 50 94.6694 50 88.6854V69.7229H38.8889Z" fill="#292F33"/>
<path d="M-27.7779 85.9766H-22.2224V91.3944H-27.7779V85.9766ZM-27.7779 64.3051H-22.2224V69.723H-27.7779V64.3051ZM-33.3335 75.1408H-27.7779V80.5587H-33.3335V75.1408ZM-5.55571 26.3801H-0.000155449V31.798H-5.55571V26.3801ZM-5.55571 37.2158H-0.000155449V42.6337H-5.55571V37.2158ZM-11.1113 48.0516H-5.55571V53.4694H-11.1113V48.0516ZM16.6665 56.1783H22.2221V61.5962H16.6665V56.1783ZM11.111 67.0141H16.6665V72.4319H11.111V67.0141ZM5.5554 83.2676H11.111V88.6855H5.5554V83.2676ZM30.5554 34.5069H36.111V39.9248H30.5554V34.5069ZM30.5554 45.3426H36.111V50.7605H30.5554V45.3426Z" fill="#FFCC4D"/>
<path d="M11.1113 18.2535C12.6454 18.2535 13.889 17.0407 13.889 15.5446C13.889 14.0485 12.6454 12.8357 11.1113 12.8357C9.57715 12.8357 8.3335 14.0485 8.3335 15.5446C8.3335 17.0407 9.57715 18.2535 11.1113 18.2535Z" fill="white"/>
<path d="M23.6111 18.2535C24.3781 18.2535 24.9999 17.6471 24.9999 16.899C24.9999 16.151 24.3781 15.5446 23.6111 15.5446C22.844 15.5446 22.2222 16.151 22.2222 16.899C22.2222 17.6471 22.844 18.2535 23.6111 18.2535Z" fill="white"/>
<path d="M36.1113 12.8356C37.6454 12.8356 38.8891 11.6227 38.8891 10.1266C38.8891 8.63055 37.6454 7.41772 36.1113 7.41772C34.5772 7.41772 33.3335 8.63055 33.3335 10.1266C33.3335 11.6227 34.5772 12.8356 36.1113 12.8356Z" fill="white"/>
<path d="M37.5002 23.6714C38.2673 23.6714 38.8891 23.065 38.8891 22.3169C38.8891 21.5688 38.2673 20.9624 37.5002 20.9624C36.7332 20.9624 36.1113 21.5688 36.1113 22.3169C36.1113 23.065 36.7332 23.6714 37.5002 23.6714Z" fill="white"/>
</g>
</svg>
