<svg width="100" height="100" viewBox="0 0 100 69" fill="none" xmlns="http://www.w3.org/2000/svg">
<path d="M5.55556 11.3782C0 11.3782 0 15.9291 0 15.9291V63.7141C0 63.7141 0 68.265 5.55556 68.265H94.4444C100 68.265 100 63.7141 100 63.7141V15.9291C100 15.9291 100 11.3782 94.4444 11.3782H5.55556Z" fill="#5C913B"/>
<path d="M5.55556 0C0 0 0 4.55095 0 4.55095V50.0605C0 50.0605 0 54.6115 5.55556 54.6115H94.4444C100 54.6115 100 50.0605 100 50.0605V4.55095C100 4.55095 100 0 94.4444 0H5.55556Z" fill="#A7D28B"/>
<path d="M69.4445 42.0961C79.4163 42.0961 87.5 35.4741 87.5 27.3054C87.5 19.1368 79.4163 12.5148 69.4445 12.5148C59.4727 12.5148 51.3889 19.1368 51.3889 27.3054C51.3889 35.4741 59.4727 42.0961 69.4445 42.0961Z" fill="#77B255"/>
<path d="M91.6666 51.1975H8.33329C6.03607 51.1975 4.16663 49.6661 4.16663 47.7843V6.82569C4.16663 4.94387 6.03607 3.41248 8.33329 3.41248H91.6666C93.9638 3.41248 95.8332 4.94387 95.8332 6.82569V47.7843C95.8332 49.6661 93.9638 51.1975 91.6666 51.1975ZM8.33329 5.68795C7.5694 5.68795 6.9444 6.19766 6.9444 6.82569V47.7843C6.9444 48.4101 7.5694 48.922 8.33329 48.922H91.6666C92.4305 48.922 93.0555 48.4101 93.0555 47.7843V6.82569C93.0555 6.19766 92.4305 5.68795 91.6666 5.68795H8.33329Z" fill="#5C913B"/>
<path d="M38.8889 0H61.1111V54.7526H38.8889V0Z" fill="#FFE8B6"/>
<path d="M38.8889 54.611H61.1111V68.2639H38.8889V54.611Z" fill="#FFAC33"/>
<path d="M32.8053 31.909C32.8053 25.1303 17.547 25.5717 17.547 21.4782C17.547 19.4962 19.8609 18.5291 22.5442 18.5291C27.0581 18.5291 27.8609 20.9047 29.9053 20.9047C31.3525 20.9047 32.0497 20.1584 32.0497 19.321C32.0497 17.3732 28.4497 15.9032 24.997 15.3935V13.5163C24.997 12.3444 23.8386 11.3955 22.4081 11.3955C20.9775 11.3955 19.8192 12.3467 19.8192 13.5163V15.4572C16.0581 16.1626 12.8164 18.3016 12.8164 21.7853C12.8164 28.2978 28.0748 28.0338 28.0748 32.6121C28.0748 34.1935 25.9803 35.7773 22.5414 35.7773C17.3831 35.7773 15.6637 32.917 13.572 32.917C12.5498 32.917 11.6387 33.6201 11.6387 34.6805C11.6387 36.3666 15.0831 38.3918 19.8248 38.9607L19.822 38.9698V41.0951C19.822 42.2647 20.9831 43.2158 22.4137 43.2158C23.8414 43.2135 24.9998 42.2624 24.9998 41.0951V38.9698C24.9998 38.947 24.9859 38.9265 24.9831 38.9061C29.247 38.253 32.8053 35.9798 32.8053 31.909V31.909Z" fill="#5C913B"/>
</svg>
