<?xml version="1.0" encoding="UTF-8"?>
<svg xmlns="http://www.w3.org/2000/svg" xmlns:xlink="http://www.w3.org/1999/xlink" width="35pt" height="35pt" viewBox="0 0 35 35" version="1.1">
<g id="surface1">
<path style=" stroke:none;fill-rule:nonzero;fill:rgb(100%,100%,100%);fill-opacity:1;" d="M 13.695312 21.101562 C 13.890625 21.296875 14.144531 21.390625 14.398438 21.390625 C 14.652344 21.390625 14.90625 21.296875 15.097656 21.101562 L 25.582031 10.617188 C 25.96875 10.230469 25.96875 9.601562 25.582031 9.214844 C 25.195312 8.828125 24.566406 8.828125 24.179688 9.214844 L 13.695312 19.699219 C 13.308594 20.085938 13.308594 20.714844 13.695312 21.101562 Z M 13.695312 21.101562 "/>
<path style=" stroke:none;fill-rule:nonzero;fill:rgb(100%,100%,100%);fill-opacity:1;" d="M 34.550781 6.324219 C 34.167969 5.175781 33.320312 3.925781 32.097656 2.703125 C 30.863281 1.46875 28.988281 0 27.046875 0 C 26.175781 0 25.375 0.304688 24.71875 0.886719 C 24.6875 0.914062 24.652344 0.941406 24.621094 0.972656 L 20.859375 4.734375 L 1.191406 4.734375 C 0.644531 4.734375 0.199219 5.179688 0.199219 5.726562 L 0.199219 34.007812 C 0.199219 34.554688 0.644531 35 1.191406 35 L 29.472656 35 C 30.019531 35 30.464844 34.554688 30.464844 34.007812 L 30.464844 13.738281 C 30.464844 13.675781 30.457031 13.613281 30.445312 13.554688 L 33.742188 10.261719 C 33.75 10.253906 33.753906 10.246094 33.761719 10.242188 L 33.824219 10.175781 C 33.855469 10.144531 33.882812 10.113281 33.910156 10.078125 C 34.8125 9.066406 35.035156 7.769531 34.550781 6.324219 Z M 13.503906 26.867188 L 6.503906 28.886719 L 8.09375 21.457031 Z M 15.320312 25.875 L 8.921875 19.476562 L 23.847656 4.554688 L 30.246094 10.949219 Z M 28.480469 33.015625 L 2.183594 33.015625 L 2.183594 6.71875 L 18.875 6.71875 L 6.796875 18.800781 C 6.660156 18.933594 6.566406 19.105469 6.527344 19.292969 L 4.214844 30.09375 C 4.144531 30.433594 4.253906 30.789062 4.511719 31.027344 C 4.695312 31.199219 4.9375 31.292969 5.1875 31.292969 C 5.238281 31.292969 24.332031 31.292969 24.332031 31.292969 C 24.878906 31.292969 25.324219 30.847656 25.324219 30.300781 C 25.324219 29.753906 24.878906 29.308594 24.332031 29.308594 L 12.203125 29.308594 L 15.457031 28.367188 C 15.621094 28.320312 15.765625 28.234375 15.886719 28.117188 L 28.480469 15.523438 Z M 32.398438 8.792969 C 32.386719 8.804688 32.375 8.816406 32.367188 8.828125 L 32.359375 8.835938 C 32.355469 8.839844 32.351562 8.84375 32.347656 8.847656 L 31.648438 9.546875 L 25.25 3.148438 L 25.96875 2.433594 C 25.980469 2.421875 25.992188 2.410156 26.003906 2.402344 C 26.308594 2.117188 26.640625 1.984375 27.046875 1.984375 C 28.015625 1.984375 29.347656 2.757812 30.691406 4.105469 C 31.429688 4.84375 33.734375 7.363281 32.398438 8.792969 Z M 32.398438 8.792969 "/>
</g>
</svg>
