<svg version="1.1" xmlns="http://www.w3.org/2000/svg" xmlns:xlink="http://www.w3.org/1999/xlink" viewBox="0 0 226 226"><g fill="none" fill-rule="nonzero" stroke="none" stroke-width="1" stroke-linecap="butt" stroke-linejoin="miter" stroke-miterlimit="10" stroke-dasharray="" stroke-dashoffset="0" font-family="none" font-weight="none" font-size="none" text-anchor="none" style="mix-blend-mode: normal"><path d="M0,226v-226h226v226z" fill="none"></path><g id="Layer_1"><path d="M201.28125,7.0625h-158.90625c-9.71094,0 -17.65625,7.94531 -17.65625,17.65625v48.73125c0,33.37031 -4.06094,66.56406 -12.18281,98.875l-1.05937,4.41406c-2.29531,8.82813 4.59062,17.47969 13.77188,17.47969h17.12656v24.71875h158.90625c9.71094,0 17.65625,-7.94531 17.65625,-17.65625v-176.5625c0,-9.71094 -7.94531,-17.65625 -17.65625,-17.65625z"></path><path d="M42.375,7.0625c-9.71094,0 -17.65625,7.94531 -17.65625,17.65625v48.73125c0,33.37031 -4.06094,66.56406 -12.18281,98.875l-1.05937,4.41406c-2.29531,8.82813 4.59062,17.47969 13.77188,17.47969v0h116.00156h18.71562c9.71094,0 18.18594,-6.53281 20.48125,-16.06719l1.4125,-5.82656c8.12187,-32.31094 12.18281,-65.50469 12.18281,-98.875v-25.77813v-10.59375c0,-6.88594 5.47344,-12.35937 12.35938,-12.35937v0c6.88594,0 12.35938,5.47344 12.35938,12.35938v-7.0625v-22.95312z"></path><path d="M107.17344,136.65938c-7.76875,0 -13.06562,-6.70937 -17.83281,-12.53594c-2.29531,-3.00156 -5.82656,-7.23906 -7.94531,-7.76875c-1.4125,1.23594 -3.88438,4.76719 -6.00312,7.76875c-1.58906,2.11875 -3.35469,4.59062 -5.29687,7.0625c-1.76562,2.29531 -5.12031,2.64844 -7.41563,0.88281c-2.29531,-1.76562 -2.64844,-5.12031 -0.88281,-7.41563c1.76563,-2.29531 3.53125,-4.76719 5.12031,-6.88594c5.47344,-7.41563 8.29844,-11.47656 12.7125,-12.00625c7.94531,-1.05938 13.24219,5.65 18.00937,11.65312c3.17812,3.88438 7.23906,8.82813 9.8875,8.65156c1.94219,-0.17656 4.41406,-2.64844 6.88594,-4.94375c3.88438,-3.70781 8.82813,-8.475 15.71406,-7.76875c1.94219,0.17656 3.88438,0.70625 5.82656,1.76563c2.64844,1.23594 3.70781,4.41406 2.47188,7.0625c-1.23594,2.64844 -4.41406,3.70781 -7.0625,2.47188c-0.88281,-0.35313 -1.58906,-0.70625 -2.11875,-0.70625c-1.94219,-0.17656 -4.59062,2.29531 -7.23906,4.94375c-3.53125,3.35469 -7.41563,7.23906 -13.06562,7.76875c-0.70625,0 -1.23594,0 -1.76563,0zM81.925,116.00156z" fill="#42bdde"></path><circle cx="86" cy="74" transform="scale(1.76563,1.76563)" r="3" fill="#42bdde"></circle><path d="M201.28125,224.23438h-158.90625c-3.00156,0 -5.29687,-2.29531 -5.29687,-5.29687c0,-3.00156 2.29531,-5.29687 5.29688,-5.29687h158.90625c6.88594,0 12.35938,-5.47344 12.35938,-12.35937v-176.5625c0,-6.88594 -5.47344,-12.35937 -12.35937,-12.35937h-158.90625c-6.88594,0 -12.35937,5.47344 -12.35937,12.35938v48.73125c0,33.72344 -4.06094,67.44688 -12.35937,100.11094l-1.05937,4.41406c-0.70625,2.64844 0,5.47344 1.58906,7.59219c1.58906,2.11875 4.2375,3.35469 6.88594,3.35469h134.89375c7.23906,0 13.59531,-4.94375 15.36094,-12.00625l1.4125,-5.82656c7.94531,-31.95781 12.00625,-64.79844 12.00625,-97.63906v-43.43438c0,-3.00156 2.29531,-5.29687 5.29688,-5.29687c3.00156,0 5.29688,2.29531 5.29688,5.29688v43.43438c0,33.72344 -4.06094,67.44688 -12.35937,100.11094l-1.4125,5.82656c-3.00156,11.82969 -13.59531,20.12813 -25.77812,20.12813h-134.71719c-6.00313,0 -11.65312,-2.64844 -15.36094,-7.41563c-3.70781,-4.76719 -4.94375,-10.77031 -3.53125,-16.59688l1.05937,-4.41406c8.12187,-31.95781 12.18281,-64.79844 12.18281,-97.63906v-48.73125c0,-12.7125 10.24063,-22.95312 22.95313,-22.95312h158.90625c12.7125,0 22.95313,10.24063 22.95313,22.95313v176.5625c0,12.7125 -10.24062,22.95313 -22.95312,22.95313z" fill="#42bdde"></path></g></g></svg>