<svg width="250" height="45" viewBox="0 0 250 45" fill="none" xmlns="http://www.w3.org/2000/svg">
<path d="M27.168 23.4102C26.4648 20.5781 25.5781 14.9648 24.5195 6.57422C24.4844 6.25391 24.4688 5.9375 24.4688 5.61719C24.4688 4.23828 24.8906 3.08594 25.7383 2.16406C26.6211 1.24609 27.7539 0.695311 29.1289 0.51953C30.6484 0.343749 31.957 0.679687 33.0508 1.52734C34.1797 2.37891 34.8516 3.63672 35.0625 5.30078L38.7188 35.2578C38.7539 35.5391 38.7734 35.8242 38.7734 36.1055C38.7734 37.5234 38.3477 38.707 37.5 39.6641C36.6523 40.5859 35.5234 41.1328 34.1094 41.3125C33.4023 41.418 32.5898 41.3125 31.6719 40.9922C30.7891 40.6406 30.0664 40.1797 29.5 39.6133L12.0703 21.6055C12.7734 24.4375 13.6602 29.9805 14.7188 38.2305C14.7539 38.5508 14.7695 38.8672 14.7695 39.1875C14.7695 40.5664 14.3281 41.7188 13.4453 42.6406C12.5977 43.5586 11.4844 44.1094 10.1094 44.2852C8.58984 44.4648 7.26562 44.125 6.13281 43.2773C5.03906 42.4258 4.38672 41.168 4.17578 39.5039L0.519531 9.55078C0.484375 9.26562 0.464844 8.98047 0.464844 8.69922C0.464844 7.28125 0.890625 6.11328 1.73828 5.19531C2.58594 4.23828 3.71484 3.67187 5.12891 3.49219C5.83594 3.38672 6.64844 3.51172 7.56641 3.86719C8.48437 4.18359 9.20703 4.625 9.73828 5.19531L27.168 23.4102ZM53.4258 43.2773C49.0078 43.4883 45.3008 42.0742 42.2969 39.0273C39.4023 36.0898 37.8281 32.4219 37.582 28.0312C37.3711 23.7109 38.5703 19.9063 41.1836 16.6133C43.9062 13.1797 47.4219 11.3359 51.7305 11.0898C56.0742 10.875 59.7656 12.3477 62.8047 15.4961C65.7344 18.4727 67.3242 22.1211 67.5703 26.4375C67.7852 30.8672 66.6172 34.6719 64.0742 37.8594C61.3906 41.2227 57.8398 43.0273 53.4258 43.2773ZM52.2578 20.7578C50.8125 20.8281 49.6797 21.5156 48.8672 22.8281C48.0898 24.1016 47.7539 25.6602 47.8633 27.5C47.9688 29.2734 48.4805 30.7578 49.3984 31.9648C50.3164 33.1328 51.4805 33.6797 52.8945 33.6094C54.3438 33.5391 55.457 32.8672 56.2344 31.5898C57.0469 30.3164 57.3984 28.7773 57.293 26.9688C57.1875 25.1641 56.6758 23.6602 55.7578 22.457C54.875 21.25 53.707 20.6836 52.2578 20.7578ZM80.8672 22.4023L80.0703 22.1914L76.4141 38.0703C76.0977 39.418 75.4805 40.4961 74.5586 41.3125C73.6406 42.0898 72.5664 42.4805 71.3281 42.4805C70.9414 42.4805 70.5352 42.4453 70.1094 42.375C68.9102 42.0898 67.957 41.4883 67.25 40.5664C66.543 39.6133 66.1875 38.5156 66.1875 37.2734C66.1875 36.7773 66.2422 36.2852 66.3477 35.7891L70.0586 19.8516L69.6875 19.8008C67.25 19.2344 66.0312 17.7812 66.0312 15.4453C66.0312 15.0195 66.082 14.5937 66.1875 14.168C66.4375 13.0703 66.9648 12.2031 67.7773 11.5664C68.625 10.8945 69.582 10.5586 70.6406 10.5586C71.0273 10.5586 71.3984 10.5937 71.7539 10.6641L72.125 10.7695L72.8633 7.58203C73.1836 6.27344 73.7852 5.21094 74.668 4.39844C75.5859 3.58203 76.6641 3.17578 77.8984 3.17578C78.2852 3.17578 78.6914 3.22656 79.1172 3.33594C80.3516 3.61719 81.3086 4.21875 81.9766 5.14062C82.6836 6.0625 83.0391 7.16015 83.0391 8.43359C83.0391 8.92969 82.9844 9.42578 82.8789 9.92187L82.1367 13.1094L82.9844 13.2656C85.5977 13.8672 86.9062 15.3398 86.9062 17.6758C86.9062 18.0664 86.8711 18.4883 86.8008 18.9492C86.2344 21.3594 84.7344 22.5625 82.2969 22.5625C81.8359 22.5625 81.3594 22.5078 80.8672 22.4023ZM110.621 27.4492L96.8984 32.2305C97.8164 33.1484 99 33.6094 100.449 33.6094C101.262 33.6094 102.109 33.4492 102.992 33.1328C104.191 32.707 105.5 31.7148 106.914 30.1562C108.324 28.5977 109.402 27.6797 110.145 27.3945C110.57 27.2539 110.992 27.1836 111.418 27.1836C112.652 27.1836 113.73 27.625 114.648 28.5117C115.602 29.3945 116.078 30.4414 116.078 31.6445C116.078 33.5938 114.879 35.6641 112.477 37.8594C110.32 39.8789 107.953 41.3281 105.375 42.2148C103.539 42.8516 101.703 43.1719 99.8672 43.1719C96.582 43.1719 93.6328 42.1797 91.0156 40.1953C88.4375 38.2148 86.5664 35.5234 85.4023 32.1211C84.7656 30.3164 84.4492 28.4414 84.4492 26.4922C84.4492 23.2344 85.2773 20.3125 86.9375 17.7305C88.7383 14.9648 91.1953 13.0547 94.3008 11.9922C95.8555 11.4609 97.4297 11.1953 99.0195 11.1953C102.27 11.1953 105.289 12.2383 108.078 14.3281C110.727 16.2773 112.531 18.668 113.484 21.5C113.73 22.207 113.855 22.8789 113.855 23.5195C113.855 25.3945 112.777 26.7031 110.621 27.4492ZM97.2695 20.4922C95.2227 21.1992 94.1797 22.6875 94.1445 24.9531L102.461 22.082C101.508 20.8438 100.324 20.2266 98.9141 20.2266C98.3828 20.2266 97.8359 20.3125 97.2695 20.4922ZM130.281 22.4023L129.484 22.1914L125.832 38.0703C125.512 39.418 124.895 40.4961 123.977 41.3125C123.059 42.0898 121.98 42.4805 120.742 42.4805C120.355 42.4805 119.949 42.4453 119.523 42.375C118.324 42.0898 117.371 41.4883 116.664 40.5664C115.957 39.6133 115.605 38.5156 115.605 37.2734C115.605 36.7773 115.656 36.2852 115.762 35.7891L119.473 19.8516L119.102 19.8008C116.664 19.2344 115.445 17.7812 115.445 15.4453C115.445 15.0195 115.5 14.5937 115.605 14.168C115.852 13.0703 116.383 12.2031 117.195 11.5664C118.043 10.8945 118.996 10.5586 120.055 10.5586C120.445 10.5586 120.812 10.5937 121.168 10.6641L121.539 10.7695L122.281 7.58203C122.598 6.27344 123.199 5.21094 124.082 4.39844C125 3.58203 126.078 3.17578 127.312 3.17578C127.703 3.17578 128.109 3.22656 128.531 3.33594C129.77 3.61719 130.723 4.21875 131.395 5.14062C132.102 6.0625 132.453 7.16015 132.453 8.43359C132.453 8.92969 132.398 9.42578 132.293 9.92187L131.551 13.1094L132.398 13.2656C135.016 13.8672 136.32 15.3398 136.32 17.6758C136.32 18.0664 136.285 18.4883 136.215 18.9492C135.648 21.3594 134.148 22.5625 131.711 22.5625C131.254 22.5625 130.777 22.5078 130.281 22.4023ZM162.062 40.3008C161.605 40.4102 161.145 40.4609 160.688 40.4609C159.484 40.4609 158.441 40 157.559 39.082C156.043 41.168 154.027 42.4961 151.52 43.0625C150.496 43.3125 149.473 43.4375 148.445 43.4375C145.125 43.4375 142.16 42.2656 139.547 39.9297C136.965 37.5586 135.219 34.4414 134.301 30.582C133.98 29.1641 133.824 27.75 133.824 26.332C133.824 22.7578 134.777 19.6211 136.684 16.9336C138.59 14.207 141.117 12.4687 144.262 11.7266C145.145 11.5156 146.008 11.4062 146.855 11.4062C148.516 11.4062 150.055 11.7812 151.469 12.5234C152.102 10.9648 153.27 9.97266 154.965 9.55078C155.527 9.44141 156.059 9.39062 156.555 9.39062C158.887 9.39062 160.457 11.125 161.27 14.5937L165.508 33.0273C165.754 34.1602 165.879 35.0977 165.879 35.8398C165.879 38.25 164.605 39.7344 162.062 40.3008ZM144.102 26.1211C144.102 26.8281 144.172 27.5547 144.312 28.2969C144.668 29.8203 145.305 31.0781 146.223 32.0703C147.141 33.0625 148.199 33.5586 149.402 33.5586C150.777 33.5586 151.836 33.0078 152.578 31.9102C153.285 30.9531 153.641 29.75 153.641 28.2969C153.641 27.625 153.551 26.918 153.375 26.1719C153.02 24.6172 152.387 23.3398 151.469 22.3477C150.547 21.3242 149.508 20.8086 148.34 20.8086C146.965 20.8086 145.902 21.3398 145.16 22.4023C144.457 23.4297 144.102 24.668 144.102 26.1211ZM178.098 31.9102C178.766 33.2539 179.527 35.1328 180.375 37.5391C180.656 38.25 180.797 38.9727 180.797 39.7188C180.797 42.0898 179.633 43.6836 177.301 44.5C176.738 44.7109 176.172 44.8164 175.605 44.8164C173.168 44.8164 171.508 43.5078 170.625 40.8867L160.027 9.97266C159.781 9.26562 159.656 8.55859 159.656 7.84765C159.656 5.40625 160.789 3.79297 163.047 3.01562C163.613 2.80469 164.195 2.69531 164.797 2.69531C167.199 2.69531 168.84 4.00781 169.727 6.6289L174.492 20.543L178.359 12.8945C179.562 10.5234 181.188 9.33594 183.234 9.33594C184.543 9.33594 185.656 9.83203 186.574 10.8242C187.527 11.8164 188.004 12.9648 188.004 14.2773C188.004 15.1602 187.723 16.082 187.156 17.0391L183.395 23.8359L194.152 30.2109C195.848 31.2031 196.695 32.6719 196.695 34.6172C196.695 36.957 195.598 38.5156 193.41 39.293C192.914 39.4336 192.422 39.5039 191.926 39.5039C190.832 39.5039 189.543 39.0469 188.059 38.125L178.098 31.9102ZM220.887 27.4492L207.164 32.2305C208.082 33.1484 209.266 33.6094 210.715 33.6094C211.527 33.6094 212.375 33.4492 213.258 33.1328C214.457 32.707 215.766 31.7148 217.18 30.1562C218.59 28.5977 219.668 27.6797 220.41 27.3945C220.836 27.2539 221.258 27.1836 221.684 27.1836C222.918 27.1836 223.996 27.625 224.914 28.5117C225.867 29.3945 226.344 30.4414 226.344 31.6445C226.344 33.5938 225.145 35.6641 222.742 37.8594C220.586 39.8789 218.219 41.3281 215.641 42.2148C213.805 42.8516 211.969 43.1719 210.133 43.1719C206.848 43.1719 203.895 42.1797 201.281 40.1953C198.703 38.2148 196.832 35.5234 195.668 32.1211C195.031 30.3164 194.711 28.4414 194.711 26.4922C194.711 23.2344 195.543 20.3125 197.203 17.7305C199.004 14.9648 201.461 13.0547 204.566 11.9922C206.121 11.4609 207.695 11.1953 209.285 11.1953C212.531 11.1953 215.555 12.2383 218.344 14.3281C220.992 16.2773 222.793 18.668 223.75 21.5C223.996 22.207 224.121 22.8789 224.121 23.5195C224.121 25.3945 223.043 26.7031 220.887 27.4492ZM207.535 20.4922C205.484 21.1992 204.445 22.6875 204.41 24.9531L212.727 22.082C211.773 20.8438 210.59 20.2266 209.176 20.2266C208.648 20.2266 208.102 20.3125 207.535 20.4922ZM237.789 13.4258C238.922 12.1875 240.562 11.6367 242.719 11.7812C244.062 11.8867 245.172 12.418 246.055 13.375C247.012 14.4727 247.434 15.8516 247.328 17.5156C247.223 19.0742 246.355 20.2422 244.73 21.0234C243.215 21.5547 241.695 22.082 240.176 22.6133C238.551 23.3242 237.684 24.3516 237.578 25.6953L236.785 37.3828C236.645 38.9727 236.059 40.2656 235.035 41.2578C234.012 42.25 232.738 42.6914 231.219 42.5859C229.738 42.4805 228.555 41.8789 227.672 40.7812C226.789 39.6484 226.398 38.2852 226.504 36.6914L227.938 15.9219C228.078 14.293 228.746 13.0352 229.949 12.1523C231.008 11.3711 232.211 11.0352 233.551 11.1406C235.637 11.2852 237.051 12.0469 237.789 13.4258Z" fill="#42BDDE"/>
</svg>
