<svg width="50" height="50" viewBox="0 0 50 50" fill="none" xmlns="http://www.w3.org/2000/svg">
<g clip-path="url(#clip0)">
<g clip-path="url(#clip1)">
<path d="M22.7724 0.375C22.3974 0.73125 22.3599 0.9375 22.3599 3.09375C22.3599 5.19375 22.3974 5.475 22.7349 5.8125C22.9411 6.01875 23.3536 6.1875 23.6724 6.1875C23.9911 6.1875 24.4036 6.01875 24.6099 5.8125C24.9474 5.475 24.9849 5.19375 24.9849 3.09375C24.9849 0.9375 24.9474 0.73125 24.5724 0.375C24.3474 0.16875 23.9349 -4.76837e-07 23.6724 -4.76837e-07C23.4099 -4.76837e-07 22.9974 0.16875 22.7724 0.375Z" fill="#42bdde"/>
<path d="M7.04113 6.7875C6.81613 6.9 6.53488 7.2375 6.40363 7.5375C6.10363 8.2875 6.32863 8.6625 8.10988 10.4062C9.29113 11.55 9.68488 11.8125 10.1536 11.8125C10.9036 11.8125 11.4849 11.2312 11.4849 10.4625C11.4849 9.95625 11.2224 9.6 9.83488 8.2125C8.16613 6.5625 7.86613 6.39375 7.04113 6.7875Z" fill="#42bdde"/>
<path d="M37.5286 8.2125C36.1224 9.6 35.8599 9.9375 35.8599 10.4625C35.8599 11.2313 36.4224 11.8125 37.1911 11.8125C37.6599 11.8125 38.0349 11.55 39.0849 10.5375C41.2599 8.4375 41.5036 7.85625 40.5099 6.9375C39.7599 6.24375 39.3286 6.45 37.5286 8.2125Z" fill="#42bdde"/>
<path d="M21.5161 9.91887C15.1036 10.9689 10.3599 15.9001 9.57236 22.3314C8.44736 31.4064 16.2661 39.2251 25.3411 38.1001C31.2474 37.3689 35.8974 33.3376 37.4724 27.5439C37.9224 25.8939 37.9224 22.1064 37.4724 20.4564C36.0849 15.3564 32.2411 11.5126 27.2536 10.2189C25.8661 9.86263 22.8474 9.71263 21.5161 9.91887ZM20.6724 14.2876C19.8849 16.5939 20.0161 19.9501 20.9911 22.2564C21.8724 24.3939 23.8411 26.6064 25.8661 27.7689C27.8724 28.9314 30.7036 29.5501 32.7286 29.2689C34.0599 29.0814 34.0786 29.2126 32.9911 30.6751C31.4536 32.7564 29.4849 34.2001 27.1036 34.9689C25.0224 35.6626 22.3224 35.6626 20.2411 34.9689C16.6786 33.8064 13.8661 30.9939 12.7036 27.4501C11.7286 24.4876 12.1411 20.8314 13.7536 18.1501C14.5411 16.8564 16.1911 15.1314 17.4849 14.2876C18.6099 13.5564 20.9161 12.6751 21.0099 12.9376C21.0474 13.0126 20.8786 13.6314 20.6724 14.2876Z" fill="#42bdde"/>
<path d="M0.0473877 23.1C-0.440112 23.625 -0.440112 24.375 0.0473877 24.9C0.403638 25.275 0.609888 25.3125 2.76614 25.3125C4.86614 25.3125 5.14739 25.275 5.48489 24.9375C5.97239 24.45 5.97239 23.55 5.48489 23.0625C5.14739 22.725 4.86614 22.6875 2.76614 22.6875C0.609888 22.6875 0.403638 22.725 0.0473877 23.1Z" fill="#42bdde"/>
<path d="M41.8599 23.0625C41.6536 23.2687 41.4849 23.6812 41.4849 24C41.4849 24.3187 41.6536 24.7312 41.8599 24.9375C42.1974 25.275 42.4786 25.3125 44.5786 25.3125C46.7349 25.3125 46.9411 25.275 47.2974 24.9C47.7849 24.3562 47.7849 23.4937 47.2599 23.0437C46.9224 22.7437 46.5474 22.6875 44.5411 22.6875C42.4786 22.6875 42.1974 22.725 41.8599 23.0625Z" fill="#42bdde"/>
<path d="M8.10985 37.5936C7.32235 38.3811 6.5536 39.2061 6.42235 39.4686C5.8786 40.4999 7.17235 41.7936 8.2036 41.2499C8.4661 41.1186 9.2911 40.3499 10.0786 39.5624C11.6161 37.9686 11.8411 37.2936 11.1099 36.5624C10.3786 35.8311 9.7036 36.0561 8.10985 37.5936Z" fill="#42bdde"/>
<path d="M36.235 36.5625C35.5037 37.2937 35.7287 37.9687 37.2662 39.5625C39.01 41.3437 39.385 41.5687 40.1537 41.2687C40.4537 41.1375 40.81 40.7812 40.9412 40.4812C41.2412 39.7125 41.0162 39.3375 39.235 37.5937C37.6412 36.0562 36.9662 35.8312 36.235 36.5625Z" fill="#42bdde"/>
<path d="M22.7349 42.1875C22.3974 42.525 22.3599 42.8062 22.3599 44.9062C22.3599 47.0625 22.3974 47.2687 22.7724 47.625C22.9974 47.8312 23.4099 48 23.6724 48C23.9349 48 24.3474 47.8312 24.5724 47.625C24.9474 47.2687 24.9849 47.0625 24.9849 44.9062C24.9849 42.8062 24.9474 42.525 24.6099 42.1875C24.4036 41.9812 23.9911 41.8125 23.6724 41.8125C23.3536 41.8125 22.9411 41.9812 22.7349 42.1875Z" fill="#42bdde"/>
</g>
</g>
<defs>
<clipPath id="clip0">
<rect width="49" height="49" fill="white"/>
</clipPath>
<clipPath id="clip1">
<rect width="48" height="48" fill="white" transform="translate(-0.327515)"/>
</clipPath>
</defs>
</svg>
