<?xml version="1.0" encoding="UTF-8"?>
<svg xmlns="http://www.w3.org/2000/svg" xmlns:xlink="http://www.w3.org/1999/xlink" width="30pt" height="32pt" viewBox="0 0 30 32" version="1.1">
<g id="surface1">
<path style=" stroke:none;fill-rule:nonzero;fill:rgb(25.882353%,74.117647%,87.058824%);fill-opacity:1;" d="M 23.605469 31.800781 C 22.011719 31.699219 20.699219 30.898438 19.660156 29.394531 L 14.9375 22.789062 L 9.335938 28.679688 C 8.054688 30.007812 6.636719 30.625 5.078125 30.523438 C 3.625 30.417969 2.46875 29.890625 1.601562 28.933594 C 0.738281 27.945312 0.355469 26.734375 0.460938 25.300781 C 0.5625 23.796875 2.035156 21.648438 4.871094 18.847656 C 6.394531 17.550781 7.898438 16.238281 9.386719 14.90625 C 8.175781 13.472656 6.964844 12.054688 5.753906 10.65625 C 3.851562 8.128906 2.953125 6.167969 3.054688 4.769531 C 3.125 3.4375 3.746094 2.328125 4.921875 1.441406 C 5.996094 0.550781 7.1875 0.160156 8.503906 0.261719 C 9.992188 0.363281 11.203125 1.082031 12.136719 2.414062 L 15.976562 7.890625 L 20.542969 3.027344 C 21.683594 1.796875 22.980469 1.234375 24.433594 1.335938 C 25.75 1.441406 26.890625 2.003906 27.859375 3.027344 C 28.863281 4.050781 29.3125 5.230469 29.207031 6.558594 C 29.140625 7.960938 27.980469 9.785156 25.730469 12.039062 C 24.3125 13.265625 22.914062 14.496094 21.527344 15.726562 C 22.808594 17.261719 24.105469 18.78125 25.421875 20.28125 C 27.84375 23.421875 29 25.761719 28.898438 27.296875 C 28.792969 28.730469 28.238281 29.855469 27.238281 30.675781 C 26.269531 31.527344 25.058594 31.902344 23.605469 31.800781 Z M 23.605469 31.800781 "/>
</g>
</svg>
