<svg width="37" height="40" viewBox="0 0 37 40" fill="none" xmlns="http://www.w3.org/2000/svg">
<path d="M29.112 39.752C27.1493 39.624 25.528 38.6213 24.248 36.744L18.424 28.488L11.512 35.848C9.93333 37.512 8.184 38.28 6.264 38.152C4.472 38.024 3.04267 37.3627 1.976 36.168C0.909333 34.9307 0.44 33.416 0.568 31.624C0.696 29.7467 2.50933 27.0587 6.008 23.56C7.88533 21.9387 9.74133 20.296 11.576 18.632C10.0827 16.84 8.58933 15.0693 7.096 13.32C4.74933 10.1627 3.64 7.70933 3.768 5.96C3.85333 4.296 4.62133 2.90933 6.072 1.8C7.39467 0.690665 8.86667 0.199998 10.488 0.327999C12.3227 0.455997 13.816 1.352 14.968 3.016L19.704 9.864L25.336 3.784C26.744 2.248 28.344 1.544 30.136 1.672C31.7573 1.8 33.1653 2.504 34.36 3.784C35.5973 5.064 36.152 6.536 36.024 8.2C35.9387 9.94933 34.5093 12.232 31.736 15.048C29.9867 16.584 28.2587 18.12 26.552 19.656C28.1307 21.576 29.7307 23.4747 31.352 25.352C34.3387 29.2773 35.768 32.2 35.64 34.12C35.512 35.912 34.8293 37.32 33.592 38.344C32.3973 39.4107 30.904 39.88 29.112 39.752Z" fill="#FFF"/>
</svg>
